# xmcd
#
# Track frame offsets:
#	150
#	10824
#	21164
#	29762
#	40035
#	49129
#	61285
#	72955
#	86705
#	98036
#	107055
#	117028
#	129999
#	139549
#	150139
#	159807
#	169307
#	177852
#
# Disc length: 2502 seconds
#
# Revision: 0
# Processed by: cddbd v1.5.1PL0 Copyright (c) Steve Scherf et al.
# Submitted via: MusicWizard 7.1.1b
#
DISCID=db09c412
DTITLE=Johnny Cash - The Fabulous Johnny Cash (1958)
DYEAR=1900
DGENRE=Country
TTITLE0=Run Softly, Blue River
TTITLE1=Frankie압 Man, Johnny
TTITLE2=That압 All Over
TTITLE3=The Troubadour
TTITLE4=One More Ride
TTITLE5=That압 Enough
TTITLE6=I Still Miss Someone
TTITLE7=Don앖 Take Your Guns To Town
TTITLE8=I앇 Rather Die Young
TTITLE9=PickinTime
TTITLE10=Shephert Of My Heart
TTITLE11=Suppertime
TTITLE12=Oh What A Dream  (Take 1)
TTITLE13=Mama압 Baby
TTITLE14=Fool압 Hall Of Fame
TTITLE15=I앏l Remember You
TTITLE16=Cold Shoulder
TTITLE17=WalkinThe Blues
EXTD=
EXTT0=Yesterday: 27.08.2004
EXTT1=
EXTT2=
EXTT3=
EXTT4=
EXTT5=
EXTT6=
EXTT7=
EXTT8=
EXTT9=
EXTT10=
EXTT11=
EXTT12=
EXTT13=
EXTT14=
EXTT15=
EXTT16=
EXTT17=
PLAYORDER=
